<svg xmlns="http://www.w3.org/2000/svg" style="display: none">
    <!-- arrow -->
    <symbol id="icon-arrow" viewBox="0 0 20 20">
        <path fill-rule="evenodd" clip-rule="evenodd" d="M9.41078 3.57745C9.73622 3.25201 10.2639 3.25201 10.5893 3.57745L16.4226 9.41078C16.7481 9.73622 16.7481 10.2639 16.4226 10.5893L10.5893 16.4226C10.2639 16.7481 9.73622 16.7481 9.41078 16.4226C9.08535 16.0972 9.08535 15.5696 9.41078 15.2441L13.8215 10.8334H4.16671C3.70647 10.8334 3.33337 10.4603 3.33337 10C3.33337 9.5398 3.70647 9.16671 4.16671 9.16671H13.8215L9.41078 4.75596C9.08535 4.43053 9.08535 3.90289 9.41078 3.57745Z" fill="currentColor"/>
    </symbol>
    <!-- chevron-down -->
    <symbol id="icon-chevron-down" viewBox="0 0 28 28">
        <path fill-rule="evenodd" clip-rule="evenodd" d="M7.26849 10.7563C7.62647 10.4146 8.20687 10.4146 8.56485 10.7563L13.4167 15.3876L18.2685 10.7563C18.6265 10.4146 19.2069 10.4146 19.5648 10.7563C19.9228 11.098 19.9228 11.652 19.5648 11.9937L14.0648 17.2437C13.7069 17.5854 13.1265 17.5854 12.7685 17.2437L7.26849 11.9937C6.9105 11.652 6.9105 11.098 7.26849 10.7563Z" fill="black"/>
    </symbol>
</svg>